<mxfile host="app.diagrams.net" modified="2023-12-20T12:37:06.808Z" agent="Mozilla/5.0 (Windows NT 10.0; Win64; x64) AppleWebKit/537.36 (KHTML, like Gecko) Chrome/120.0.0.0 Safari/537.36 Edg/120.0.0.0" etag="4rqJb1a5BlFxIAprqVr8" version="22.1.11" type="device">
  <diagram name="StrÃ¡nka-1" id="qhnL7rr-JAEDg-AUVXp1">
    <mxGraphModel dx="5353" dy="2617" grid="1" gridSize="10" guides="1" tooltips="1" connect="1" arrows="1" fold="1" page="1" pageScale="1" pageWidth="600" pageHeight="300" math="0" shadow="0">
      <root>
        <mxCell id="0" />
        <mxCell id="1" parent="0" />
        <mxCell id="_sQb-rkejy796aR5dQ64-8" value="" style="verticalLabelPosition=bottom;verticalAlign=top;html=1;shape=mxgraph.basic.half_circle;rotation=-90;fillColor=#dae8fc;strokeColor=#6c8ebf;" vertex="1" parent="1">
          <mxGeometry x="-530" y="70" width="280" height="140" as="geometry" />
        </mxCell>
        <mxCell id="_sQb-rkejy796aR5dQ64-9" value="" style="verticalLabelPosition=bottom;verticalAlign=top;html=1;shape=mxgraph.basic.half_circle;rotation=-90;direction=west;fillColor=#f8cecc;strokeColor=#b85450;" vertex="1" parent="1">
          <mxGeometry x="-670" y="70" width="280" height="140" as="geometry" />
        </mxCell>
        <mxCell id="_sQb-rkejy796aR5dQ64-10" value="" style="ellipse;whiteSpace=wrap;html=1;aspect=fixed;" vertex="1" parent="1">
          <mxGeometry x="-580" y="20" width="240" height="240" as="geometry" />
        </mxCell>
        <mxCell id="_sQb-rkejy796aR5dQ64-13" value="" style="pointerEvents=1;verticalLabelPosition=bottom;shadow=0;dashed=0;align=center;html=1;verticalAlign=top;shape=mxgraph.electrical.inductors.inductor_5;direction=south;" vertex="1" parent="1">
          <mxGeometry x="-467" y="140" width="14" height="100" as="geometry" />
        </mxCell>
        <mxCell id="_sQb-rkejy796aR5dQ64-14" value="" style="pointerEvents=1;verticalLabelPosition=bottom;shadow=0;dashed=0;align=center;html=1;verticalAlign=top;shape=mxgraph.electrical.inductors.inductor_5;direction=south;" vertex="1" parent="1">
          <mxGeometry x="-467" y="40" width="14" height="100" as="geometry" />
        </mxCell>
        <mxCell id="_sQb-rkejy796aR5dQ64-19" value="" style="rounded=0;whiteSpace=wrap;html=1;fillColor=#f8cecc;strokeColor=#b85450;" vertex="1" parent="1">
          <mxGeometry x="-460" y="130" width="100" height="20" as="geometry" />
        </mxCell>
        <mxCell id="_sQb-rkejy796aR5dQ64-20" value="" style="rounded=0;whiteSpace=wrap;html=1;fillColor=#dae8fc;strokeColor=#6c8ebf;" vertex="1" parent="1">
          <mxGeometry x="-560" y="130" width="100" height="20" as="geometry" />
        </mxCell>
        <mxCell id="_sQb-rkejy796aR5dQ64-11" value="" style="pointerEvents=1;verticalLabelPosition=bottom;shadow=0;dashed=0;align=center;html=1;verticalAlign=top;shape=mxgraph.electrical.inductors.inductor_5;" vertex="1" parent="1">
          <mxGeometry x="-560" y="133" width="100" height="14" as="geometry" />
        </mxCell>
        <mxCell id="_sQb-rkejy796aR5dQ64-12" value="" style="pointerEvents=1;verticalLabelPosition=bottom;shadow=0;dashed=0;align=center;html=1;verticalAlign=top;shape=mxgraph.electrical.inductors.inductor_5;" vertex="1" parent="1">
          <mxGeometry x="-460" y="133" width="100" height="14" as="geometry" />
        </mxCell>
        <mxCell id="_sQb-rkejy796aR5dQ64-21" value="" style="rounded=1;whiteSpace=wrap;html=1;fillColor=#f5f5f5;fontColor=#333333;strokeColor=#666666;" vertex="1" parent="1">
          <mxGeometry x="-270" y="37.5" width="70" height="30" as="geometry" />
        </mxCell>
        <mxCell id="_sQb-rkejy796aR5dQ64-22" value="" style="rounded=1;whiteSpace=wrap;html=1;fillColor=#ffe6cc;strokeColor=#d79b00;" vertex="1" parent="1">
          <mxGeometry x="-290" y="32.5" width="50" height="40" as="geometry" />
        </mxCell>
        <mxCell id="_sQb-rkejy796aR5dQ64-25" value="" style="rounded=1;whiteSpace=wrap;html=1;fillColor=#f5f5f5;fontColor=#333333;strokeColor=#666666;" vertex="1" parent="1">
          <mxGeometry x="-90" y="37.5" width="70" height="30" as="geometry" />
        </mxCell>
        <mxCell id="_sQb-rkejy796aR5dQ64-26" value="" style="rounded=1;whiteSpace=wrap;html=1;fillColor=#ffe6cc;strokeColor=#d79b00;" vertex="1" parent="1">
          <mxGeometry x="-50" y="32.5" width="50" height="40" as="geometry" />
        </mxCell>
        <mxCell id="_sQb-rkejy796aR5dQ64-27" value="" style="shape=sumEllipse;perimeter=ellipsePerimeter;whiteSpace=wrap;html=1;backgroundOutline=1;" vertex="1" parent="1">
          <mxGeometry x="-200" width="105" height="105" as="geometry" />
        </mxCell>
        <mxCell id="_sQb-rkejy796aR5dQ64-97" value="" style="group" vertex="1" connectable="0" parent="1">
          <mxGeometry x="-600" y="300" width="490" height="490" as="geometry" />
        </mxCell>
        <mxCell id="_sQb-rkejy796aR5dQ64-91" value="" style="group;rotation=-90;" vertex="1" connectable="0" parent="_sQb-rkejy796aR5dQ64-97">
          <mxGeometry y="225" width="490" height="40" as="geometry" />
        </mxCell>
        <mxCell id="_sQb-rkejy796aR5dQ64-87" value="" style="rounded=0;whiteSpace=wrap;html=1;fillColor=#dae8fc;strokeColor=#6c8ebf;rotation=-90;" vertex="1" parent="_sQb-rkejy796aR5dQ64-91">
          <mxGeometry x="-10" y="10" width="490" height="20" as="geometry" />
        </mxCell>
        <mxCell id="_sQb-rkejy796aR5dQ64-88" value="" style="rounded=0;whiteSpace=wrap;html=1;fillColor=#f8cecc;strokeColor=#b85450;rotation=-90;" vertex="1" parent="_sQb-rkejy796aR5dQ64-91">
          <mxGeometry x="10" y="10" width="490" height="20" as="geometry" />
        </mxCell>
        <mxCell id="_sQb-rkejy796aR5dQ64-89" value="" style="pointerEvents=1;verticalLabelPosition=bottom;shadow=0;dashed=0;align=center;html=1;verticalAlign=top;shape=mxgraph.electrical.inductors.inductor_5;rotation=-90;" vertex="1" parent="_sQb-rkejy796aR5dQ64-91">
          <mxGeometry x="148" y="-143" width="190" height="26.6" as="geometry" />
        </mxCell>
        <mxCell id="_sQb-rkejy796aR5dQ64-90" value="" style="pointerEvents=1;verticalLabelPosition=bottom;shadow=0;dashed=0;align=center;html=1;verticalAlign=top;shape=mxgraph.electrical.inductors.inductor_5;rotation=-90;" vertex="1" parent="_sQb-rkejy796aR5dQ64-91">
          <mxGeometry x="148" y="157" width="190" height="26.6" as="geometry" />
        </mxCell>
        <mxCell id="_sQb-rkejy796aR5dQ64-92" value="" style="group;rotation=0;" vertex="1" connectable="0" parent="_sQb-rkejy796aR5dQ64-97">
          <mxGeometry y="225" width="490" height="40" as="geometry" />
        </mxCell>
        <mxCell id="_sQb-rkejy796aR5dQ64-93" value="" style="rounded=0;whiteSpace=wrap;html=1;fillColor=#dae8fc;strokeColor=#6c8ebf;rotation=0;" vertex="1" parent="_sQb-rkejy796aR5dQ64-92">
          <mxGeometry width="490" height="20" as="geometry" />
        </mxCell>
        <mxCell id="_sQb-rkejy796aR5dQ64-94" value="" style="rounded=0;whiteSpace=wrap;html=1;fillColor=#f8cecc;strokeColor=#b85450;rotation=0;" vertex="1" parent="_sQb-rkejy796aR5dQ64-92">
          <mxGeometry y="20" width="490" height="20" as="geometry" />
        </mxCell>
        <mxCell id="_sQb-rkejy796aR5dQ64-95" value="" style="pointerEvents=1;verticalLabelPosition=bottom;shadow=0;dashed=0;align=center;html=1;verticalAlign=top;shape=mxgraph.electrical.inductors.inductor_5;rotation=0;" vertex="1" parent="_sQb-rkejy796aR5dQ64-92">
          <mxGeometry x="300" y="5" width="190" height="26.6" as="geometry" />
        </mxCell>
        <mxCell id="_sQb-rkejy796aR5dQ64-96" value="" style="pointerEvents=1;verticalLabelPosition=bottom;shadow=0;dashed=0;align=center;html=1;verticalAlign=top;shape=mxgraph.electrical.inductors.inductor_5;rotation=0;" vertex="1" parent="_sQb-rkejy796aR5dQ64-92">
          <mxGeometry y="5" width="190" height="26.6" as="geometry" />
        </mxCell>
        <mxCell id="_sQb-rkejy796aR5dQ64-63" value="" style="shape=sumEllipse;perimeter=ellipsePerimeter;whiteSpace=wrap;html=1;backgroundOutline=1;rotation=0;" vertex="1" parent="_sQb-rkejy796aR5dQ64-97">
          <mxGeometry x="190" y="193" width="110" height="110" as="geometry" />
        </mxCell>
        <mxCell id="_sQb-rkejy796aR5dQ64-124" value="" style="group" vertex="1" connectable="0" parent="1">
          <mxGeometry x="-600" y="810" width="490" height="490" as="geometry" />
        </mxCell>
        <mxCell id="_sQb-rkejy796aR5dQ64-125" value="" style="group;rotation=-90;" vertex="1" connectable="0" parent="_sQb-rkejy796aR5dQ64-124">
          <mxGeometry y="225" width="490" height="40" as="geometry" />
        </mxCell>
        <mxCell id="_sQb-rkejy796aR5dQ64-126" value="" style="rounded=0;whiteSpace=wrap;html=1;fillColor=#dae8fc;strokeColor=#6c8ebf;rotation=-90;" vertex="1" parent="_sQb-rkejy796aR5dQ64-125">
          <mxGeometry x="-10" y="10" width="490" height="20" as="geometry" />
        </mxCell>
        <mxCell id="_sQb-rkejy796aR5dQ64-127" value="" style="rounded=0;whiteSpace=wrap;html=1;fillColor=#f8cecc;strokeColor=#b85450;rotation=-90;" vertex="1" parent="_sQb-rkejy796aR5dQ64-125">
          <mxGeometry x="10" y="10" width="490" height="20" as="geometry" />
        </mxCell>
        <mxCell id="_sQb-rkejy796aR5dQ64-128" value="" style="pointerEvents=1;verticalLabelPosition=bottom;shadow=0;dashed=0;align=center;html=1;verticalAlign=top;shape=mxgraph.electrical.inductors.inductor_5;rotation=-90;" vertex="1" parent="_sQb-rkejy796aR5dQ64-125">
          <mxGeometry x="148" y="-143" width="190" height="26.6" as="geometry" />
        </mxCell>
        <mxCell id="_sQb-rkejy796aR5dQ64-129" value="" style="pointerEvents=1;verticalLabelPosition=bottom;shadow=0;dashed=0;align=center;html=1;verticalAlign=top;shape=mxgraph.electrical.inductors.inductor_5;rotation=-90;" vertex="1" parent="_sQb-rkejy796aR5dQ64-125">
          <mxGeometry x="148" y="157" width="190" height="26.6" as="geometry" />
        </mxCell>
        <mxCell id="_sQb-rkejy796aR5dQ64-130" value="" style="group;rotation=0;" vertex="1" connectable="0" parent="_sQb-rkejy796aR5dQ64-124">
          <mxGeometry y="225" width="490" height="40" as="geometry" />
        </mxCell>
        <mxCell id="_sQb-rkejy796aR5dQ64-131" value="" style="rounded=0;whiteSpace=wrap;html=1;rotation=0;" vertex="1" parent="_sQb-rkejy796aR5dQ64-130">
          <mxGeometry width="490" height="40" as="geometry" />
        </mxCell>
        <mxCell id="_sQb-rkejy796aR5dQ64-133" value="" style="pointerEvents=1;verticalLabelPosition=bottom;shadow=0;dashed=0;align=center;html=1;verticalAlign=top;shape=mxgraph.electrical.inductors.inductor_5;rotation=0;" vertex="1" parent="_sQb-rkejy796aR5dQ64-130">
          <mxGeometry x="300" y="5" width="190" height="26.6" as="geometry" />
        </mxCell>
        <mxCell id="_sQb-rkejy796aR5dQ64-134" value="" style="pointerEvents=1;verticalLabelPosition=bottom;shadow=0;dashed=0;align=center;html=1;verticalAlign=top;shape=mxgraph.electrical.inductors.inductor_5;rotation=0;" vertex="1" parent="_sQb-rkejy796aR5dQ64-130">
          <mxGeometry y="5" width="190" height="26.6" as="geometry" />
        </mxCell>
        <mxCell id="_sQb-rkejy796aR5dQ64-135" value="" style="shape=sumEllipse;perimeter=ellipsePerimeter;whiteSpace=wrap;html=1;backgroundOutline=1;rotation=0;" vertex="1" parent="_sQb-rkejy796aR5dQ64-124">
          <mxGeometry x="190" y="193" width="110" height="110" as="geometry" />
        </mxCell>
        <mxCell id="_sQb-rkejy796aR5dQ64-37" value="" style="verticalLabelPosition=bottom;verticalAlign=top;html=1;shape=mxgraph.basic.half_circle;rotation=-90;fillColor=#dae8fc;strokeColor=#6c8ebf;" vertex="1" parent="1">
          <mxGeometry x="460" y="320" width="600" height="300" as="geometry" />
        </mxCell>
        <mxCell id="_sQb-rkejy796aR5dQ64-38" value="" style="verticalLabelPosition=bottom;verticalAlign=top;html=1;shape=mxgraph.basic.half_circle;rotation=-90;direction=west;fillColor=#f8cecc;strokeColor=#b85450;" vertex="1" parent="1">
          <mxGeometry x="160" y="320" width="600" height="300" as="geometry" />
        </mxCell>
        <mxCell id="_sQb-rkejy796aR5dQ64-39" value="" style="ellipse;whiteSpace=wrap;html=1;aspect=fixed;" vertex="1" parent="1">
          <mxGeometry x="360" y="220" width="500" height="500" as="geometry" />
        </mxCell>
        <mxCell id="_sQb-rkejy796aR5dQ64-123" value="" style="verticalLabelPosition=bottom;html=1;verticalAlign=top;strokeWidth=2;shape=mxgraph.lean_mapping.physical_pull;pointerEvents=1;" vertex="1" parent="1">
          <mxGeometry x="410" y="270" width="400" height="400" as="geometry" />
        </mxCell>
        <mxCell id="_sQb-rkejy796aR5dQ64-148" value="" style="group;rotation=0;" vertex="1" connectable="0" parent="1">
          <mxGeometry x="385" y="250" width="450" height="450" as="geometry" />
        </mxCell>
        <mxCell id="_sQb-rkejy796aR5dQ64-149" value="" style="group;rotation=-15;" vertex="1" connectable="0" parent="_sQb-rkejy796aR5dQ64-148">
          <mxGeometry x="1" y="207" width="450" height="36.734693877551024" as="geometry" />
        </mxCell>
        <mxCell id="_sQb-rkejy796aR5dQ64-150" value="" style="rounded=0;whiteSpace=wrap;html=1;fillColor=#dae8fc;strokeColor=#6c8ebf;rotation=-15;" vertex="1" parent="_sQb-rkejy796aR5dQ64-149">
          <mxGeometry x="-4" y="-1" width="450" height="18.367346938775512" as="geometry" />
        </mxCell>
        <mxCell id="_sQb-rkejy796aR5dQ64-151" value="" style="rounded=0;whiteSpace=wrap;html=1;fillColor=#f8cecc;strokeColor=#b85450;rotation=-15;" vertex="1" parent="_sQb-rkejy796aR5dQ64-149">
          <mxGeometry x="1" y="18" width="450" height="18.367346938775512" as="geometry" />
        </mxCell>
        <mxCell id="_sQb-rkejy796aR5dQ64-152" value="" style="pointerEvents=1;verticalLabelPosition=bottom;shadow=0;dashed=0;align=center;html=1;verticalAlign=top;shape=mxgraph.electrical.inductors.inductor_5;rotation=-15;" vertex="1" parent="_sQb-rkejy796aR5dQ64-149">
          <mxGeometry x="270" y="-32" width="174.48979591836735" height="24.428571428571434" as="geometry" />
        </mxCell>
        <mxCell id="_sQb-rkejy796aR5dQ64-153" value="" style="pointerEvents=1;verticalLabelPosition=bottom;shadow=0;dashed=0;align=center;html=1;verticalAlign=top;shape=mxgraph.electrical.inductors.inductor_5;rotation=-15;" vertex="1" parent="_sQb-rkejy796aR5dQ64-149">
          <mxGeometry x="5" y="40" width="174.48979591836735" height="24.428571428571434" as="geometry" />
        </mxCell>
        <mxCell id="_sQb-rkejy796aR5dQ64-154" value="" style="group;rotation=75;" vertex="1" connectable="0" parent="_sQb-rkejy796aR5dQ64-148">
          <mxGeometry x="1" y="207" width="450" height="36.734693877551024" as="geometry" />
        </mxCell>
        <mxCell id="_sQb-rkejy796aR5dQ64-155" value="" style="rounded=0;whiteSpace=wrap;html=1;rotation=75;" vertex="1" parent="_sQb-rkejy796aR5dQ64-154">
          <mxGeometry width="450" height="36.734693877551024" as="geometry" />
        </mxCell>
        <mxCell id="_sQb-rkejy796aR5dQ64-156" value="" style="pointerEvents=1;verticalLabelPosition=bottom;shadow=0;dashed=0;align=center;html=1;verticalAlign=top;shape=mxgraph.electrical.inductors.inductor_5;rotation=75;" vertex="1" parent="_sQb-rkejy796aR5dQ64-154">
          <mxGeometry x="176" y="138" width="174.48979591836735" height="24.428571428571434" as="geometry" />
        </mxCell>
        <mxCell id="_sQb-rkejy796aR5dQ64-157" value="" style="pointerEvents=1;verticalLabelPosition=bottom;shadow=0;dashed=0;align=center;html=1;verticalAlign=top;shape=mxgraph.electrical.inductors.inductor_5;rotation=75;" vertex="1" parent="_sQb-rkejy796aR5dQ64-154">
          <mxGeometry x="103" y="-127" width="174.48979591836735" height="24.428571428571434" as="geometry" />
        </mxCell>
        <mxCell id="_sQb-rkejy796aR5dQ64-158" value="" style="shape=sumEllipse;perimeter=ellipsePerimeter;whiteSpace=wrap;html=1;backgroundOutline=1;rotation=75;" vertex="1" parent="_sQb-rkejy796aR5dQ64-148">
          <mxGeometry x="171" y="173" width="101.0204081632653" height="101.0204081632653" as="geometry" />
        </mxCell>
        <mxCell id="_sQb-rkejy796aR5dQ64-163" value="" style="group" vertex="1" connectable="0" parent="_sQb-rkejy796aR5dQ64-148">
          <mxGeometry x="81" y="202" width="90" height="40" as="geometry" />
        </mxCell>
        <mxCell id="_sQb-rkejy796aR5dQ64-164" value="" style="rounded=1;whiteSpace=wrap;html=1;fillColor=#f5f5f5;fontColor=#333333;strokeColor=#666666;container=0;" vertex="1" parent="_sQb-rkejy796aR5dQ64-163">
          <mxGeometry x="20" y="5" width="70" height="30" as="geometry" />
        </mxCell>
        <mxCell id="_sQb-rkejy796aR5dQ64-165" value="" style="rounded=1;whiteSpace=wrap;html=1;fillColor=#ffe6cc;strokeColor=#d79b00;container=0;" vertex="1" parent="_sQb-rkejy796aR5dQ64-163">
          <mxGeometry width="50" height="40" as="geometry" />
        </mxCell>
        <mxCell id="_sQb-rkejy796aR5dQ64-171" value="+" style="text;html=1;strokeColor=none;fillColor=none;align=center;verticalAlign=middle;whiteSpace=wrap;rounded=0;fontSize=50;fontStyle=1" vertex="1" parent="_sQb-rkejy796aR5dQ64-163">
          <mxGeometry x="10" y="5" width="30" height="30" as="geometry" />
        </mxCell>
        <mxCell id="_sQb-rkejy796aR5dQ64-166" value="" style="group;flipH=1;" vertex="1" connectable="0" parent="_sQb-rkejy796aR5dQ64-148">
          <mxGeometry x="272" y="202" width="90" height="40" as="geometry" />
        </mxCell>
        <mxCell id="_sQb-rkejy796aR5dQ64-167" value="" style="rounded=1;whiteSpace=wrap;html=1;fillColor=#f5f5f5;fontColor=#333333;strokeColor=#666666;container=0;" vertex="1" parent="_sQb-rkejy796aR5dQ64-166">
          <mxGeometry y="5" width="70" height="30" as="geometry" />
        </mxCell>
        <mxCell id="_sQb-rkejy796aR5dQ64-168" value="" style="rounded=1;whiteSpace=wrap;html=1;fillColor=#ffe6cc;strokeColor=#d79b00;container=0;" vertex="1" parent="_sQb-rkejy796aR5dQ64-166">
          <mxGeometry x="40" width="50" height="40" as="geometry" />
        </mxCell>
        <mxCell id="_sQb-rkejy796aR5dQ64-174" value="" style="endArrow=none;html=1;rounded=0;endSize=6;strokeWidth=6;" edge="1" parent="_sQb-rkejy796aR5dQ64-166">
          <mxGeometry width="50" height="50" relative="1" as="geometry">
            <mxPoint x="50" y="19.730000000000018" as="sourcePoint" />
            <mxPoint x="80" y="19.730000000000018" as="targetPoint" />
          </mxGeometry>
        </mxCell>
        <mxCell id="_sQb-rkejy796aR5dQ64-159" value="" style="group" vertex="1" connectable="0" parent="1">
          <mxGeometry x="-231" y="140.0000000000001" width="90" height="40" as="geometry" />
        </mxCell>
        <mxCell id="_sQb-rkejy796aR5dQ64-46" value="" style="rounded=1;whiteSpace=wrap;html=1;fillColor=#f5f5f5;fontColor=#333333;strokeColor=#666666;container=0;" vertex="1" parent="_sQb-rkejy796aR5dQ64-159">
          <mxGeometry x="20" y="5" width="70" height="30" as="geometry" />
        </mxCell>
        <mxCell id="_sQb-rkejy796aR5dQ64-47" value="" style="rounded=1;whiteSpace=wrap;html=1;fillColor=#ffe6cc;strokeColor=#d79b00;container=0;" vertex="1" parent="_sQb-rkejy796aR5dQ64-159">
          <mxGeometry width="50" height="40" as="geometry" />
        </mxCell>
        <mxCell id="_sQb-rkejy796aR5dQ64-160" value="" style="group;flipH=1;" vertex="1" connectable="0" parent="1">
          <mxGeometry x="-90.13" y="143.62" width="90" height="40" as="geometry" />
        </mxCell>
        <mxCell id="_sQb-rkejy796aR5dQ64-161" value="" style="rounded=1;whiteSpace=wrap;html=1;fillColor=#f5f5f5;fontColor=#333333;strokeColor=#666666;container=0;" vertex="1" parent="_sQb-rkejy796aR5dQ64-160">
          <mxGeometry y="5" width="70" height="30" as="geometry" />
        </mxCell>
        <mxCell id="_sQb-rkejy796aR5dQ64-162" value="" style="rounded=1;whiteSpace=wrap;html=1;fillColor=#ffe6cc;strokeColor=#d79b00;container=0;" vertex="1" parent="_sQb-rkejy796aR5dQ64-160">
          <mxGeometry x="40" width="50" height="40" as="geometry" />
        </mxCell>
        <mxCell id="_sQb-rkejy796aR5dQ64-81" value="N" style="text;html=1;align=center;verticalAlign=middle;resizable=0;points=[];autosize=1;strokeColor=none;fillColor=none;fontSize=30;" vertex="1" parent="1">
          <mxGeometry x="310" y="170" width="50" height="50" as="geometry" />
        </mxCell>
        <mxCell id="_sQb-rkejy796aR5dQ64-83" value="" style="shape=flexArrow;endArrow=classic;html=1;rounded=0;exitX=1.072;exitY=0.528;exitDx=0;exitDy=0;exitPerimeter=0;" edge="1" parent="1" source="_sQb-rkejy796aR5dQ64-81" target="_sQb-rkejy796aR5dQ64-121">
          <mxGeometry width="50" height="50" relative="1" as="geometry">
            <mxPoint x="277.53" y="217.51" as="sourcePoint" />
            <mxPoint x="967.5299999999997" y="207.51" as="targetPoint" />
          </mxGeometry>
        </mxCell>
        <mxCell id="_sQb-rkejy796aR5dQ64-121" value="S" style="text;html=1;align=center;verticalAlign=middle;resizable=0;points=[];autosize=1;strokeColor=none;fillColor=none;fontSize=30;" vertex="1" parent="1">
          <mxGeometry x="870" y="170" width="40" height="50" as="geometry" />
        </mxCell>
      </root>
    </mxGraphModel>
  </diagram>
</mxfile>
